<svg width="199" height="46" viewBox="0 0 199 46" fill="none" xmlns="http://www.w3.org/2000/svg">
<path d="M40.2127 23.5305L43.6505 16.6208C43.6505 16.6208 41.0218 15.2618 41.7476 11.0006C41.7476 11.0006 42.9247 6.55868 50.1718 7.91768C50.1718 7.91768 47.4737 12.808 45.6888 16.7112L39.4766 29.7069L40.2127 23.5305Z" fill="#231F20"/>
<path d="M40.4776 23.0687C40.3769 23.3954 40.2727 23.7256 40.1686 24.0488C40.1512 24.0975 40.1061 24.1392 40.0748 24.1809C40.0366 24.1322 39.9845 24.0905 39.9637 24.0384C39.8422 23.6978 39.731 23.3537 39.613 23.0131C39.3595 22.2658 39.1025 21.5116 38.856 20.7608C38.6233 20.0796 38.3941 19.3948 38.1649 18.7101C37.9149 17.9768 37.6649 17.2434 37.4218 16.5135C37.2482 15.9991 37.0885 15.4777 36.9114 14.9633C36.6614 14.2091 36.4009 13.4514 36.1474 12.6972C35.9669 12.1619 35.7828 11.6197 35.6022 11.0775C35.4321 10.5735 35.2689 10.0626 35.0918 9.52733C35.1925 9.50995 35.2654 9.49605 35.3418 9.48909C35.7724 9.45086 36.2065 9.42653 36.637 9.37092C37.0607 9.31878 37.2586 8.98859 37.1197 8.60627C37.0364 8.37687 36.8454 8.2726 36.5155 8.2865C35.189 8.34559 33.8695 8.43596 32.543 8.43943C31.5047 8.44638 30.4595 8.34559 29.4177 8.28998C29.0149 8.26912 28.7649 8.45333 28.7337 8.79048C28.7024 9.11024 28.9316 9.33616 29.3379 9.38135C29.7268 9.41958 30.1122 9.44391 30.5012 9.49257C30.5914 9.503 30.7234 9.56208 30.7512 9.6316C31.0845 10.504 31.3971 11.3799 31.7165 12.2558C32.0186 13.0899 32.3277 13.9241 32.6124 14.7617C32.7062 15.0467 32.8972 15.3178 32.7652 15.6689C32.5534 16.232 32.3659 16.8089 32.1749 17.3824C31.9422 18.0671 31.72 18.7518 31.4908 19.4366C31.1887 20.3333 30.8866 21.237 30.5845 22.1407C30.3623 22.808 30.1435 23.4788 29.9213 24.1461C29.9004 24.1948 29.8414 24.2296 29.8032 24.2747C29.7546 24.2261 29.6921 24.1913 29.6643 24.1357C29.6018 23.9932 29.5532 23.8368 29.5046 23.6908C28.9906 22.158 28.4698 20.6183 27.9558 19.082C27.5218 17.7821 27.0808 16.4753 26.6467 15.1684C26.296 14.1118 25.9418 13.0621 25.5911 12.009C25.3167 11.1922 25.0459 10.3684 24.7542 9.503C24.8862 9.48562 24.9764 9.47172 25.0771 9.46129C25.4661 9.43001 25.8585 9.41263 26.2404 9.35354C26.4106 9.32574 26.5946 9.24232 26.7231 9.12415C26.8828 8.97469 26.8933 8.75225 26.7856 8.55761C26.6675 8.34559 26.4835 8.24827 26.2335 8.26565C25.4626 8.31778 24.7021 8.3873 23.9312 8.40467C22.3999 8.44291 20.872 8.44638 19.3441 8.46376C18.9031 8.47071 18.5732 8.76615 18.5628 9.16585C18.5523 9.56904 18.8544 9.87142 19.3163 9.91313C19.6462 9.93051 19.9726 9.90618 20.299 9.93398C20.3997 9.94094 20.5421 10.0278 20.5733 10.1147C20.9622 11.1401 21.3303 12.1654 21.7019 13.1942C22.2748 14.7756 22.8409 16.3571 23.4208 17.942C24.0111 19.5652 24.6084 21.1848 25.1987 22.8115C26.0251 25.088 26.8481 27.3716 27.6711 29.6551C27.7336 29.8393 27.8412 29.9193 28.0426 29.9054C28.2961 29.8845 28.5566 29.8845 28.8101 29.8949C28.9906 29.9019 29.074 29.815 29.133 29.6516C29.2927 29.1894 29.4664 28.7375 29.6261 28.2822C30.0497 27.0762 30.4734 25.877 30.8901 24.671C31.3207 23.4162 31.7478 22.158 32.1749 20.9068C32.5638 19.7667 32.9458 18.6232 33.3382 17.4832C33.359 17.4206 33.4319 17.3755 33.4806 17.3233C33.5222 17.372 33.5882 17.4137 33.609 17.4728C33.8313 18.0671 34.05 18.6615 34.2619 19.2558C34.6022 20.1908 34.9251 21.1257 35.2654 22.0607C35.6682 23.1695 36.078 24.2747 36.4843 25.38C36.9565 26.6591 37.4288 27.9347 37.9149 29.2068C38.1754 29.8915 38.1892 29.888 38.9289 29.888C39.3838 29.888 39.4011 29.8949 39.5644 29.4466C39.8456 28.675 40.0991 27.8999 40.3665 27.1248C40.7103 26.1377 41.061 25.1506 41.4013 24.1566C41.4707 23.955 41.5402 23.7499 41.6131 23.5448C41.1582 23.3571 40.7624 23.1868 40.4811 23.0687H40.4776Z" fill="#231F20"/>
<path d="M34.6598 32.1675C34.6598 32.1675 33.8958 28.5319 38.3163 28.0731V26.7558C38.3163 26.7558 36.4238 24.3297 37.5246 22.0601C37.6079 21.8898 38.035 21.4519 38.3476 21.3476C39.2921 21.0383 41.2401 20.7081 41.702 22.9881C41.702 22.9881 42.1881 24.9554 40.7123 26.8635L40.6047 28.1148C40.6047 28.1148 44.3688 28.5632 44.0424 32.1675H34.6598Z" fill="#E09C26" stroke="black" stroke-miterlimit="10"/>
<path d="M24.0426 32.1675C24.0426 32.1675 23.2786 28.5319 27.6991 28.0731V26.7558C27.6991 26.7558 25.8066 24.3297 26.9074 22.0601C26.9907 21.8898 27.4178 21.4519 27.7304 21.3476C28.6749 21.0383 30.623 20.7081 31.0848 22.9881C31.0848 22.9881 31.5709 24.9554 30.0951 26.8635L29.9875 28.1148C29.9875 28.1148 33.7517 28.5632 33.4252 32.1675H24.0426Z" fill="#E09C26" stroke="black" stroke-miterlimit="10"/>
<path d="M27.8117 32.1678C27.8117 32.1678 26.8185 27.4409 32.562 26.8465V25.1365C32.562 25.1365 30.1035 21.984 31.5342 19.0332C31.6418 18.8107 32.1974 18.2442 32.6037 18.1086C33.8295 17.7089 36.3609 17.2779 36.9617 20.2392C36.9617 20.2392 37.5902 22.7939 35.6768 25.2755L35.5345 26.8987C35.5345 26.8987 40.4237 27.4826 40.0001 32.1644H27.8082L27.8117 32.1678Z" fill="#F8B717" stroke="black" stroke-miterlimit="10"/>
<path d="M67.8176 42.1115C67.1995 43.7207 65.5778 45.0415 64.1993 45.0415H4.16347C2.78836 45.0415 1.15977 43.7207 0.541664 42.1115L0.277755 41.4163C-0.340347 39.8071 0.2847 38.4863 1.6598 38.4863H66.696C68.0711 38.4863 68.6926 39.8036 68.078 41.4163L67.8141 42.1115H67.8176Z" fill="#010101"/>
<path d="M113.022 17.6009L113.133 22.2028H112.717C112.519 21.0488 112.036 20.1208 111.269 19.4187C110.501 18.7166 109.668 18.3656 108.772 18.3656C108.081 18.3656 107.532 18.5498 107.129 18.9217C106.727 19.2936 106.525 19.7177 106.525 20.2008C106.525 20.5066 106.598 20.7777 106.74 21.0141C106.938 21.3339 107.251 21.6501 107.685 21.9595C108.004 22.1819 108.741 22.5816 109.893 23.1516C111.508 23.9476 112.595 24.6949 113.158 25.4004C113.713 26.106 113.991 26.9158 113.991 27.823C113.991 28.9769 113.543 29.971 112.644 30.8017C111.744 31.6324 110.605 32.0494 109.22 32.0494C108.786 32.0494 108.376 32.0043 107.991 31.9174C107.605 31.8305 107.119 31.6636 106.536 31.4169C106.209 31.2813 105.942 31.2118 105.733 31.2118C105.556 31.2118 105.372 31.2813 105.174 31.4169C104.976 31.5524 104.817 31.761 104.695 32.039H104.32V26.8255H104.695C104.994 28.2922 105.567 29.4114 106.421 30.1795C107.275 30.9476 108.188 31.3369 109.171 31.3369C109.932 31.3369 110.536 31.1284 110.987 30.7148C111.439 30.3012 111.664 29.818 111.664 29.2689C111.664 28.9422 111.578 28.6259 111.404 28.3235C111.23 28.0211 110.97 27.7291 110.616 27.4546C110.262 27.18 109.64 26.822 108.744 26.3806C107.491 25.7619 106.588 25.2371 106.039 24.8026C105.49 24.3681 105.067 23.8815 104.772 23.3463C104.476 22.811 104.331 22.2202 104.331 21.5737C104.331 20.4754 104.733 19.5369 105.542 18.7618C106.352 17.9868 107.365 17.6009 108.595 17.6009C109.043 17.6009 109.477 17.6566 109.897 17.7643C110.216 17.8442 110.605 17.9972 111.06 18.2161C111.515 18.4351 111.838 18.5463 112.022 18.5463C112.206 18.5463 112.338 18.4907 112.439 18.383C112.54 18.2752 112.637 18.0146 112.724 17.5975H113.029L113.022 17.6009Z" fill="#FCB918"/>
<path d="M115.312 17.9174H122.434V18.2927H122.076C121.542 18.2927 121.173 18.3483 120.972 18.4596C120.771 18.5708 120.628 18.7272 120.545 18.9218C120.462 19.1165 120.416 19.61 120.416 20.399V27.1592C120.416 28.3931 120.51 29.2134 120.698 29.6131C120.885 30.0128 121.191 30.3465 121.618 30.6106C122.045 30.8748 122.583 31.0069 123.236 31.0069C123.983 31.0069 124.618 30.84 125.142 30.5029C125.667 30.1657 126.063 29.7035 126.323 29.1126C126.584 28.5217 126.716 27.4929 126.716 26.0262V20.3955C126.716 19.7769 126.65 19.3354 126.521 19.0713C126.393 18.8071 126.229 18.6229 126.031 18.5221C125.726 18.3657 125.295 18.2893 124.74 18.2893V17.9139H129.511V18.2893H129.226C128.841 18.2893 128.518 18.3657 128.261 18.5221C128.004 18.6785 127.816 18.9114 127.702 19.2242C127.615 19.4397 127.57 19.8325 127.57 20.3955V25.6404C127.57 27.2635 127.462 28.4348 127.25 29.1543C127.038 29.8738 126.518 30.5342 125.688 31.1389C124.858 31.7437 123.733 32.0461 122.299 32.0461C121.104 32.0461 120.184 31.8862 119.531 31.5664C118.642 31.132 118.013 30.5759 117.649 29.8981C117.284 29.2203 117.1 28.3062 117.1 27.1592V20.399C117.1 19.6031 117.055 19.1095 116.968 18.9184C116.881 18.7272 116.729 18.5708 116.51 18.4561C116.291 18.3414 115.892 18.2858 115.308 18.2927V17.9174H115.312Z" fill="#FCB918"/>
<path d="M135.496 25.4699V29.3002C135.496 30.0474 135.541 30.5167 135.635 30.7113C135.729 30.9059 135.889 31.0589 136.125 31.1736C136.361 31.2883 136.788 31.3474 137.413 31.3474V31.7227H130.402V31.3474C131.041 31.3474 131.472 31.2883 131.701 31.1701C131.93 31.0519 132.086 30.8955 132.18 30.7078C132.274 30.5201 132.319 30.0509 132.319 29.3036V20.3433C132.319 19.596 132.274 19.1268 132.18 18.9321C132.086 18.7375 131.927 18.5846 131.697 18.4699C131.468 18.3552 131.038 18.2961 130.406 18.2961V17.9207H136.417C138.396 17.9207 139.816 18.2752 140.681 18.9808C141.545 19.6864 141.972 20.5692 141.972 21.6293C141.972 22.526 141.695 23.2942 141.139 23.9302C140.583 24.5663 139.816 25.0042 138.84 25.2336C138.184 25.397 137.069 25.4769 135.503 25.4769L135.496 25.4699ZM135.496 18.7097V24.6775C135.719 24.6914 135.889 24.6983 136.003 24.6983C136.83 24.6983 137.469 24.4516 137.917 23.9615C138.365 23.4714 138.587 22.7068 138.587 21.6745C138.587 20.6422 138.365 19.8984 137.917 19.4257C137.469 18.953 136.802 18.7132 135.913 18.7132H135.496V18.7097Z" fill="#FCB918"/>
<path d="M148.223 25.4699V29.3002C148.223 30.0474 148.268 30.5167 148.362 30.7113C148.456 30.9059 148.615 31.0589 148.851 31.1736C149.088 31.2883 149.515 31.3474 150.14 31.3474V31.7227H143.129V31.3474C143.768 31.3474 144.198 31.2883 144.427 31.1701C144.657 31.0519 144.813 30.8955 144.907 30.7078C145 30.5201 145.046 30.0509 145.046 29.3036V20.3433C145.046 19.596 145 19.1268 144.907 18.9321C144.813 18.7375 144.653 18.5846 144.424 18.4699C144.195 18.3552 143.764 18.2961 143.132 18.2961V17.9207H149.143C151.122 17.9207 152.543 18.2752 153.407 18.9808C154.272 19.6864 154.699 20.5692 154.699 21.6293C154.699 22.526 154.421 23.2942 153.866 23.9302C153.31 24.5663 152.543 25.0042 151.567 25.2336C150.911 25.397 149.796 25.4769 148.23 25.4769L148.223 25.4699ZM148.223 18.7097V24.6775C148.445 24.6914 148.615 24.6983 148.73 24.6983C149.556 24.6983 150.195 24.4516 150.643 23.9615C151.091 23.4714 151.313 22.7068 151.313 21.6745C151.313 20.6422 151.091 19.8984 150.643 19.4257C150.195 18.953 149.529 18.7132 148.64 18.7132H148.223V18.7097Z" fill="#FCB918"/>
<path d="M163.37 17.7223C165.568 17.6424 167.353 18.2819 168.724 19.6478C170.096 21.0138 170.783 22.7204 170.783 24.771C170.783 26.5228 170.273 28.0625 169.249 29.3937C167.891 31.1594 165.978 32.0422 163.502 32.0422C161.026 32.0422 159.099 31.2011 157.744 29.5154C156.671 28.1842 156.137 26.6062 156.137 24.7815C156.137 22.7308 156.835 21.0207 158.227 19.6548C159.619 18.2888 161.335 17.6424 163.37 17.7258V17.7223ZM163.491 18.3757C162.231 18.3757 161.269 19.0222 160.613 20.3117C160.078 21.3718 159.81 22.8907 159.81 24.8718C159.81 27.2283 160.224 28.9697 161.05 30.0958C161.627 30.8848 162.432 31.2775 163.47 31.2775C164.168 31.2775 164.752 31.1072 165.221 30.7701C165.818 30.3356 166.283 29.6405 166.613 28.6881C166.943 27.7358 167.113 26.4915 167.113 24.9552C167.113 23.1305 166.943 21.7645 166.606 20.8574C166.269 19.9502 165.835 19.3107 165.307 18.9388C164.78 18.5669 164.175 18.3792 163.491 18.3792V18.3757Z" fill="#FCB918"/>
<path d="M177.064 25.4317V29.3002C177.064 30.0474 177.109 30.5167 177.203 30.7113C177.297 30.9059 177.456 31.0589 177.686 31.1736C177.915 31.2883 178.345 31.3474 178.977 31.3474V31.7227H171.918V31.3474C172.557 31.3474 172.987 31.2883 173.217 31.1701C173.446 31.0519 173.602 30.8955 173.696 30.7078C173.789 30.5201 173.835 30.0509 173.835 29.3036V20.3433C173.835 19.596 173.789 19.1268 173.696 18.9321C173.602 18.7375 173.442 18.5846 173.213 18.4699C172.984 18.3552 172.553 18.2961 171.921 18.2961V17.9207H178.331C179.998 17.9207 181.221 18.0354 181.995 18.2683C182.769 18.5012 183.398 18.9252 183.887 19.5473C184.377 20.1695 184.62 20.8959 184.62 21.7301C184.62 22.7485 184.256 23.5896 183.523 24.2569C183.054 24.6775 182.401 24.9938 181.561 25.2023L184.877 29.8771C185.311 30.4819 185.62 30.8573 185.804 31.0067C186.082 31.2188 186.405 31.3335 186.77 31.3543V31.7297H182.426L177.981 25.4352H177.074L177.064 25.4317ZM177.064 18.661V24.7088H177.644C178.585 24.7088 179.293 24.6219 179.759 24.4481C180.224 24.2743 180.596 23.9615 180.863 23.5096C181.13 23.0578 181.266 22.4704 181.266 21.744C181.266 20.6909 181.019 19.9158 180.53 19.4118C180.04 18.9078 179.245 18.6576 178.154 18.6576H177.067L177.064 18.661Z" fill="#FCB918"/>
<path d="M198.988 17.9174V21.6537H198.623C198.408 20.7918 198.165 20.1731 197.901 19.7942C197.637 19.4154 197.272 19.1165 196.814 18.894C196.557 18.7724 196.106 18.7098 195.46 18.7098H194.432V29.3594C194.432 30.0649 194.47 30.5064 194.55 30.6836C194.63 30.8609 194.779 31.0138 195.008 31.1459C195.237 31.278 195.547 31.344 195.939 31.344H196.397V31.7194H189.175V31.344H189.633C190.032 31.344 190.355 31.271 190.598 31.1285C190.775 31.0347 190.914 30.8713 191.015 30.6384C191.088 30.4751 191.126 30.0476 191.126 29.3559V18.7063H190.129C189.199 18.7063 188.525 18.9045 188.105 19.2972C187.515 19.8464 187.143 20.6319 186.987 21.6503H186.601V17.9139H198.991L198.988 17.9174Z" fill="#FCB918"/>
<path d="M99.1913 16.8018H89.8225L85.7458 28.9667L81.6691 16.8018H79.1342L74.6964 28.0596L70.6197 16.8018H66.543L73.3386 35.4941H75.8735L80.3218 24.4344L84.1172 35.4941L88.0133 35.1326L89.3711 29.6931H95.6216C96.5036 29.6236 96.7744 29.4846 97.2849 29.2865C100.848 27.9171 102.237 23.8887 102.237 23.8887C103.442 19.5232 100.771 17.5212 99.8302 16.9686C99.8198 16.9616 99.8129 16.9582 99.8024 16.9512C99.5003 16.8018 99.1948 16.8018 99.1948 16.8018H99.1913ZM95.8612 26.1479H90.458L92.4512 20.1697H97.205C97.205 20.1697 97.4377 20.1697 97.6044 20.2914C97.6148 20.2983 97.6287 20.3087 97.6391 20.3157C100.507 22.4602 97.9342 24.8897 96.771 25.7865C96.7119 25.8316 96.6529 25.8768 96.6043 25.9116C96.4029 26.061 95.8646 26.1444 95.8646 26.1444L95.8612 26.1479Z" fill="black"/>
<path d="M72.2068 14.8203H66.7064V14.0521L69.6129 10.8197C70.0435 10.3297 70.3421 9.93344 70.5053 9.62758C70.6685 9.32171 70.7519 9.00542 70.7519 8.67871C70.7519 8.24077 70.6199 7.8793 70.3525 7.59776C70.0886 7.31623 69.7344 7.1772 69.29 7.1772C68.7587 7.1772 68.3454 7.33014 68.0537 7.62905C67.7586 7.93143 67.6127 8.35199 67.6127 8.89073H66.5467C66.5467 8.11564 66.7967 7.49002 67.2933 7.01385C67.7898 6.53767 68.4566 6.29785 69.2934 6.29785C70.0747 6.29785 70.6894 6.50292 71.1443 6.91305C71.5992 7.32318 71.8249 7.86887 71.8249 8.55011C71.8249 9.37732 71.297 10.3644 70.2449 11.5045L67.9947 13.9444H72.2103V14.8168L72.2068 14.8203Z" fill="black"/>
<path d="M77.8415 11.998H79.0048V12.8704H77.8415V14.8203H76.7685V12.8704H72.9453V12.2413L76.706 6.41602H77.8415V11.998ZM74.1572 11.998H76.7685V7.87581L76.6435 8.10521L74.1572 11.998Z" fill="black"/>
<path d="M81.4536 8.40087L80.457 8.10543L80.6098 7.6084L81.6064 7.97683L81.5752 6.84375H82.0787L82.0474 7.99421L83.0267 7.63273L83.1795 8.13324L82.169 8.43215L82.8218 9.3254L82.412 9.63474L81.7974 8.68587L81.2036 9.61389L80.7904 9.31498L81.4536 8.40434V8.40087Z" fill="#FAB819"/>
<path d="M89.8693 7.52486L86.6607 14.7265H85.6294L88.8276 7.77859H84.6328V6.96875H89.8693V7.52139V7.52486Z" fill="black"/>
<mask id="mask0_1_22" style="mask-type:luminance" maskUnits="userSpaceOnUse" x="0" y="38" width="69" height="8">
<path d="M67.7785 42.1116C67.1604 43.7209 65.5388 45.0416 64.1602 45.0416H4.1244C2.7493 45.0416 1.1207 43.7209 0.502601 42.1116L0.238692 41.4165C-0.37941 39.8072 0.245637 38.4865 1.62074 38.4865H66.6569C68.032 38.4865 68.6536 39.8037 68.039 41.4165L67.7751 42.1116H67.7785Z" fill="white"/>
</mask>
<g mask="url(#mask0_1_22)">
<path opacity="0.5" d="M3.74609 38.4833L65.1639 45.8031H70.4178L72.2061 42.1432L71.5047 38.4833L66.5425 35.7618L3.74609 38.4833Z" fill="#656565"/>
</g>
<path d="M53.7184 0H14.6391C11.4166 0 8.77753 2.72843 8.77753 6.06163V30.3081C8.77753 33.6448 11.4131 36.3698 14.6391 36.3698H53.7184C56.9444 36.3698 59.58 33.6413 59.58 30.3081V6.06163C59.58 2.72495 56.9444 0 53.7184 0ZM55.1213 31.8687H13.2397V4.50451H55.1213V31.8687Z" fill="#010101"/>
<mask id="mask1_1_22" style="mask-type:luminance" maskUnits="userSpaceOnUse" x="8" y="0" width="52" height="37">
<path d="M53.7184 0H14.6391C11.4166 0 8.77753 2.72843 8.77753 6.06163V30.3081C8.77753 33.6448 11.4131 36.3698 14.6391 36.3698H53.7184C56.9444 36.3698 59.58 33.6413 59.58 30.3081V6.06163C59.58 2.72495 56.9444 0 53.7184 0ZM55.1213 31.8687H13.2397V4.50451H55.1213V31.8687Z" fill="white"/>
</mask>
<g mask="url(#mask1_1_22)">
<path opacity="0.5" d="M9.07613 34.8827L59.066 1.29007L42.353 -5.2373L11.236 -1.83807C11.236 -1.83807 4.44383 0.473277 4.44383 1.42562C4.44383 2.37796 3.49237 25.6339 3.49237 25.6339L9.07613 34.8827Z" fill="url(#paint0_linear_1_22)"/>
</g>
<path d="M37.1748 41.1279H31.1084C30.7574 41.1279 30.4729 41.4119 30.4729 41.7622C30.4729 42.1126 30.7574 42.3966 31.1084 42.3966H37.1748C37.5258 42.3966 37.8103 42.1126 37.8103 41.7622C37.8103 41.4119 37.5258 41.1279 37.1748 41.1279Z" fill="black"/>
<defs>
<linearGradient id="paint0_linear_1_22" x1="3.49237" y1="14.821" x2="59.066" y2="14.821" gradientUnits="userSpaceOnUse">
<stop stop-color="white"/>
<stop offset="0.72" stop-color="#231F20"/>
</linearGradient>
</defs>
</svg>
